<svg id="Camada_1" data-name="Camada 1" xmlns="http://www.w3.org/2000/svg" viewBox="0 0 546.69 441.25"><defs><style>.cls-1{fill:#fff;}</style></defs><title>teste-layout</title><path class="cls-1" d="M538.92,373.51h-389L344.39,25.75Zm-327.5-36.68h266l-133-237.72Z" transform="translate(-27.31 -25.75)"/><path class="cls-1" d="M190.9,373.51H62.39L211.54,106.87l64.25,114.88Zm-67-36.68h46.44l64.38-115.08-23.22-41.52Z" transform="translate(-27.31 -25.75)"/><path class="cls-1" d="M402.6,201.93c-15.71-16.22-30.85-15.69-51.8-15-4.36.15-8.86.31-13.51.31-33.66,0-47.58-33.29-50.25-50.89l35.1-5.79c0,.2,3.45,20,15.15,20,4,0,8-.14,12.3-.29,24.14-.85,51.52-1.82,78.14,25.67Z" transform="translate(-27.31 -25.75)"/><path class="cls-1" d="M27.31,408.31H37.92V466.4H27.31Zm3.83,0H65v10.55H31.14Zm0,24H60.75v10.55H31.14Zm0,23.57H65V466.4H31.14Z" transform="translate(-27.31 -25.75)"/><path class="cls-1" d="M104.21,467l-3.85-.84a33,33,0,0,1-7.24-2.46,27.21,27.21,0,0,1-6.06-3.89l4.92-9A23.59,23.59,0,0,0,99.49,455a26.13,26.13,0,0,0,8.75,1.5c3.45,0,6.14-.6,8.05-1.82a5.74,5.74,0,0,0,2.86-5.13v0a5.14,5.14,0,0,0-1.28-3.68,7.53,7.53,0,0,0-3.32-2,38,38,0,0,0-5.27-1.16.59.59,0,0,0-.21,0,.93.93,0,0,1-.22,0l-.85-.12a51.36,51.36,0,0,1-9.36-2.3,13.8,13.8,0,0,1-6.31-4.83q-2.6-3.47-2.6-9.81v0a18.17,18.17,0,0,1,2.44-9.63,15.53,15.53,0,0,1,7.08-6.09,27.16,27.16,0,0,1,11.23-2.1,27.66,27.66,0,0,1,6.17.72,33,33,0,0,1,6.18,2.07,34.64,34.64,0,0,1,5.73,3.28l-4.49,9.27a28.54,28.54,0,0,0-6.8-3.6,20,20,0,0,0-6.79-1.27q-4.87,0-7.55,1.65a5.21,5.21,0,0,0-2.67,4.66v0a5.53,5.53,0,0,0,1.39,4,8.18,8.18,0,0,0,3.45,2.14,55,55,0,0,0,5.77,1.44,1.55,1.55,0,0,0,.31.06l.31.06.44.1.45.1A45.74,45.74,0,0,1,121.3,435a13.9,13.9,0,0,1,6,5q2.4,3.42,2.4,9.33v.08a17.34,17.34,0,0,1-2.52,9.51,15.74,15.74,0,0,1-7.33,6A29.1,29.1,0,0,1,108.24,467Z" transform="translate(-27.31 -25.75)"/><path class="cls-1" d="M166.44,467l-4.57-2.54a16.74,16.74,0,0,1-7-7.39,26.21,26.21,0,0,1-2.4-11.73V429.4a26.2,26.2,0,0,1,2.4-11.72,16.92,16.92,0,0,1,7-7.42,22.25,22.25,0,0,1,11-2.55,18.37,18.37,0,0,1,16.39,9.21A30,30,0,0,1,193,427.76H182a14.82,14.82,0,0,0-1.92-4.91,9.33,9.33,0,0,0-3.13-3.12,8,8,0,0,0-4.12-1.07,9.72,9.72,0,0,0-5.07,1.25,8.09,8.09,0,0,0-3.2,3.68,14,14,0,0,0-1.1,5.81v15.94a13.89,13.89,0,0,0,1.1,5.8,8.06,8.06,0,0,0,3.2,3.65,9.63,9.63,0,0,0,5.07,1.26,8.27,8.27,0,0,0,4.18-1.06,8.8,8.8,0,0,0,3.13-3.09,14.74,14.74,0,0,0,1.86-5h11a30.62,30.62,0,0,1-3.81,10.85A18.31,18.31,0,0,1,172.87,467Z" transform="translate(-27.31 -25.75)"/><path class="cls-1" d="M232.35,408.31h6.73l21.53,58.09H249.19l-13.48-39.67L222.24,466.4H210.82Zm-11.19,38.23h29.61v10.55H221.16Z" transform="translate(-27.31 -25.75)"/><path class="cls-1" d="M283.43,408.31H294V466.4H283.43Zm4.72,47.54h33V466.4h-33Z" transform="translate(-27.31 -25.75)"/><path class="cls-1" d="M361.61,408.31h6.73l21.53,58.09H378.45L365,426.73,351.5,466.4H340.08Zm-11.19,38.23H380v10.55H350.42Z" transform="translate(-27.31 -25.75)"/><path class="cls-1" d="M403.4,408.31h41.26v10.55H403.4Zm15.33,4.75h10.6V466.4h-10.6Z" transform="translate(-27.31 -25.75)"/><path class="cls-1" d="M473.78,464.34a18.16,18.16,0,0,1-7.22-7.51A23.69,23.69,0,0,1,464,445.58V429.12a23.68,23.68,0,0,1,2.56-11.24,18.16,18.16,0,0,1,7.22-7.51,23.17,23.17,0,0,1,21.56,0,18.22,18.22,0,0,1,7.22,7.51,23.8,23.8,0,0,1,2.55,11.24v16.46a23.81,23.81,0,0,1-2.55,11.25,18.22,18.22,0,0,1-7.22,7.51,23.17,23.17,0,0,1-21.56,0Zm15.81-9.55a8.5,8.5,0,0,0,3.35-3.57,11.62,11.62,0,0,0,1.18-5.36v-17a11.58,11.58,0,0,0-1.18-5.35,8.52,8.52,0,0,0-3.35-3.58,10.75,10.75,0,0,0-10.06,0,8.46,8.46,0,0,0-3.35,3.58,11.58,11.58,0,0,0-1.18,5.35v17a11.62,11.62,0,0,0,1.18,5.36,8.44,8.44,0,0,0,3.35,3.57,10.67,10.67,0,0,0,10.06,0Z" transform="translate(-27.31 -25.75)"/><path class="cls-1" d="M531.42,408.27H542V466.4H531.42Zm4.22,24.21h19.59a5,5,0,0,0,2.86-.84,5.45,5.45,0,0,0,1.92-2.4,9.3,9.3,0,0,0,.71-3.59,9,9,0,0,0-.67-3.6,5.45,5.45,0,0,0-1.92-2.4,5.06,5.06,0,0,0-2.9-.83H535.64V408.27h20.44a15.42,15.42,0,0,1,8.17,2.15,14.45,14.45,0,0,1,5.45,6.1,22.45,22.45,0,0,1,0,18.26,14.39,14.39,0,0,1-5.47,6.09,15.36,15.36,0,0,1-8.15,2.16H535.64Zm11.84,8.75,11.35-1.84,15.17,27H561.15Z" transform="translate(-27.31 -25.75)"/></svg>